/* XPM */
static char *result[] = {
/* columns rows colors chars-per-pixel */
"64 64 6 1 ",
"  c #14182E",
". c #AD2F45",
"X c #C8D45D",
"o c #686F99",
"O c #A3A7C2",
"+ c #DFE0E8",
/* pixels */
"XXXXXXXXXXXXXXXXXXXXXXXXXXXXXXXXXXXXXXXXXXXXXXXXXXXXXXXXXXXXXXXX",
"XXXXXXXXXXXXXXXXXXXXXXXXXXXXXXXXXXXXXXXXXXXXXXXXXXXXXXXXXXXXXXXX",
"XXXXXXXXXXXXXXXXXXXX                        XXXXXXXXXXXXXXXXXXXX",
"XXXXXXXXXXXXXXXXXXXX                        XXXXXXXXXXXXXXXXXXXX",
"XXXXXXXXXXXXXXXXXXXX                        XXXXXXXXXXXXXXXXXXXX",
"XXXXXXXXXXXXXXXXXXXX                        XXXXXXXXXXXXXXXXXXXX",
"XXXXXXXXXXXXXXXX    ++++++++++++++++OOOOOOOO    XXXXXXXXXXXXXXXX",
"XXXXXXXXXXXXXXXX    ++++++++++++++++OOOOOOOO    XXXXXXXXXXXXXXXX",
"XXXXXXXXXXXXXXXX    ++++++++++++++++OOOOOOOO    XXXXXXXXXXXXXXXX",
"XXXXXXXXXXXXXXXX    ++++++++++++++++OOOOOOOO    XXXXXXXXXXXXXXXX",
"XXXXXXXXXXXX    ++++++++++++++++++++++++OOOOOOOO    XXXXXXXXXXXX",
"XXXXXXXXXXXX    ++++++++++++++++++++++++OOOOOOOO    XXXXXXXXXXXX",
"XXXXXXXXXXXX    ++++++++++++++++++++++++OOOOOOOO    XXXXXXXXXXXX",
"XXXXXXXXXXXX    ++++++++++++++++++++++++OOOOOOOO    XXXXXXXXXXXX",
"XXXXXXXXXXXX    ++++++++++++++++OOOOOOOOOOOOOOOO    XXXXXXXXXXXX",
"XXXXXXXXXXXX    ++++++++++++++++OOOOOOOOOOOOOOOO    XXXXXXXXXXXX",
"XXXXXXXXXXXX    ++++++++++++++++OOOOOOOOOOOOOOOO    XXXXXXXXXXXX",
"XXXXXXXXXXXX    ++++++++++++++++OOOOOOOOOOOOOOOO    XXXXXXXXXXXX",
"XXXXXXXXXXXX    ++++++++OOOOOOOOOOOOOOOOOOOOOOOO    XXXXXXXXXXXX",
"XXXXXXXXXXXX    ++++++++OOOOOOOOOOOOOOOOOOOOOOOO    XXXXXXXXXXXX",
"XXXXXXXXXXXX    ++++++++OOOOOOOOOOOOOOOOOOOOOOOO    XXXXXXXXXXXX",
"XXXXXXXXXXXX    ++++++++OOOOOOOOOOOOOOOOOOOOOOOO    XXXXXXXXXXXX",
"XXXXXXXXXXXX    ++++OOOO    ++++OOOOooooooooOOOO    XXXXXXXXXXXX",
"XXXXXXXXXXXX    ++++OOOO    ++++OOOOooooooooOOOO    XXXXXXXXXXXX",
"XXXXXXXXXXXX    ++++OOOO    ++++OOOOooooooooOOOO    XXXXXXXXXXXX",
"XXXXXXXXXXXX    ++++OOOO    ++++OOOOooooooooOOOO    XXXXXXXXXXXX",
"XXXXXXXXXXXX    OOOO        ++++ooooOOOOOOOOoooo    XXXXXXXXXXXX",
"XXXXXXXXXXXX    OOOO        ++++ooooOOOOOOOOoooo    XXXXXXXXXXXX",
"XXXXXXXXXXXX    OOOO        ++++ooooOOOOOOOOoooo    XXXXXXXXXXXX",
"XXXXXXXXXXXX    OOOO        ++++ooooOOOOOOOOoooo    XXXXXXXXXXXX",
"XXXXXXXXXXXX    ++++....    OOOOOOOOOOOOOOOOoooo    XXXXXXXXXXXX",
"XXXXXXXXXXXX    ++++....    OOOOOOOOOOOOOOOOoooo    XXXXXXXXXXXX",
"XXXXXXXXXXXX    ++++....    OOOOOOOOOOOOOOOOoooo    XXXXXXXXXXXX",
"XXXXXXXXXXXX    ++++....    OOOOOOOOOOOOOOOOoooo    XXXXXXXXXXXX",
"XXXXXXXXXXXX    oooo++++OOOOOOOOOOOOoooooooo    XXXXXXXXXXXXXXXX",
"XXXXXXXXXXXX    oooo++++OOOOOOOOOOOOoooooooo    XXXXXXXXXXXXXXXX",
"XXXXXXXXXXXX    oooo++++OOOOOOOOOOOOoooooooo    XXXXXXXXXXXXXXXX",
"XXXXXXXXXXXX    oooo++++OOOOOOOOOOOOoooooooo    XXXXXXXXXXXXXXXX",
"XXXXXXXXXXXX    ++++    ++++++++    oooo    XXXXXXXXXXXXXXXXXXXX",
"XXXXXXXXXXXX    ++++    ++++++++    oooo    XXXXXXXXXXXXXXXXXXXX",
"XXXXXXXXXXXX    ++++    ++++++++    oooo    XXXXXXXXXXXXXXXXXXXX",
"XXXXXXXXXXXX    ++++    ++++++++    oooo    XXXXXXXXXXXXXXXXXXXX",
"XXXXXXXXXXXXXXXX                ooooOOOO    XXXXXXXXXXXXXXXXXXXX",
"XXXXXXXXXXXXXXXX                ooooOOOO    XXXXXXXXXXXXXXXXXXXX",
"XXXXXXXXXXXXXXXX                ooooOOOO    XXXXXXXXXXXXXXXXXXXX",
"XXXXXXXXXXXXXXXX                ooooOOOO    XXXXXXXXXXXXXXXXXXXX",
"XXXXXXXXXXXXXXXXXXXX    ++++OOOO    ++++    XXXXXXXXXXXXXXXXXXXX",
"XXXXXXXXXXXXXXXXXXXX    ++++OOOO    ++++    XXXXXXXXXXXXXXXXXXXX",
"XXXXXXXXXXXXXXXXXXXX    ++++OOOO    ++++    XXXXXXXXXXXXXXXXXXXX",
"XXXXXXXXXXXXXXXXXXXX    OOOO    OOOO++++    XXXXXXXXXXXXXXXXXXXX",
"XXXXXXXXXXXXXXXXXXXX    OOOO    OOOO++++    XXXXXXXXXXXXXXXXXXXX",
"XXXXXXXXXXXXXXXXXXXX    OOOO    OOOO++++    XXXXXXXXXXXXXXXXXXXX",
"XXXXXXXXXXXXXXXXXXXX    OOOO    OOOO++++    XXXXXXXXXXXXXXXXXXXX",
"XXXXXXXXXXXXXXXXXXXX    ++++    ++++++++    XXXXXXXXXXXXXXXXXXXX",
"XXXXXXXXXXXXXXXXXXXX    ++++    ++++++++    XXXXXXXXXXXXXXXXXXXX",
"XXXXXXXXXXXXXXXXXXXX    ++++    ++++++++    XXXXXXXXXXXXXXXXXXXX",
"XXXXXXXXXXXXXXXXXXXX    ++++    ++++++++    XXXXXXXXXXXXXXXXXXXX",
"XXXXXXXXXXXXXXXXXXXX    oooooooo        XXXXXXXXXXXXXXXXXXXXXXXX",
"XXXXXXXXXXXXXXXXXXXX    oooooooo        XXXXXXXXXXXXXXXXXXXXXXXX",
"XXXXXXXXXXXXXXXXXXXX    oooooooo        XXXXXXXXXXXXXXXXXXXXXXXX",
"XXXXXXXXXXXXXXXXXXXXXXXX        XXXXXXXXXXXXXXXXXXXXXXXXXXXXXXXX",
"XXXXXXXXXXXXXXXXXXXXXXXX        XXXXXXXXXXXXXXXXXXXXXXXXXXXXXXXX",
"XXXXXXXXXXXXXXXXXXXXXXXX        XXXXXXXXXXXXXXXXXXXXXXXXXXXXXXXX",
"XXXXXXXXXXXXXXXXXXXXXXXX        XXXXXXXXXXXXXXXXXXXXXXXXXXXXXXXX"
};
