/* XPM */
static char *result[] = {
/* columns rows colors chars-per-pixel */
"64 64 12 1 ",
"  c #14182E",
". c #52333F",
"X c #2B2B45",
"o c #3A3F5E",
"O c #8F4D57",
"+ c #BD6A62",
"@ c #C8D45D",
"# c #4C6885",
"$ c #4FA4B8",
"% c #FFC2A1",
"& c #DFE0E8",
"* c None",
/* pixels */
"@@@@@@@@@@@@@@@@@@@@@@@@@@@@@@@@@@@@@@@@@@@@@@@@@@@@@@@@@@@@@@@@",
"@@@@@@@@@@@@@@@@@@@@@@@@@@@@@@@@@@@@@@@@@@@@@@@@@@@@@@@@@@@@@@@@",
"@@@@@@@@@@@@@@@@@@@@                        @@@@@@@@@@@@@@@@@@@@",
"@@@@@@@@@@@@@@@@@@@@                        @@@@@@@@@@@@@@@@@@@@",
"@@@@@@@@@@@@@@@@@@@@                        @@@@@@@@@@@@@@@@@@@@",
"@@@@@@@@@@@@@@@@@@@@                        @@@@@@@@@@@@@@@@@@@@",
"@@@@@@@@@@@@@@@@    oooooooooooooooooooooooo    @@@@@@@@@@@@@@@@",
"@@@@@@@@@@@@@@@@    oooooooooooooooooooooooo    @@@@@@@@@@@@@@@@",
"@@@@@@@@@@@@@@@@    oooooooooooooooooooooooo    @@@@@@@@@@@@@@@@",
"@@@@@@@@@@@@@@@@    oooooooooooooooooooooooo    @@@@@@@@@@@@@@@@",
"@@@@@@@@@@@@    oooooooooooooooooooooooooooooooo    @@@@@@@@@@@@",
"@@@@@@@@@@@@    oooooooooooooooooooooooooooooooo    @@@@@@@@@@@@",
"@@@@@@@@@@@@    oooooooooooooooooooooooooooooooo    @@@@@@@@@@@@",
"@@@@@@@@@@@@    oooooooooooooooooooooooooooooooo    @@@@@@@@@@@@",
"@@@@@@@@@@@@    oooooooooooooooooooooooooooooooo    @@@@@@@@@@@@",
"@@@@@@@@@@@@    oooooooooooooooooooooooooooooooo    @@@@@@@@@@@@",
"@@@@@@@@@@@@    oooooooooooooooooooooooooooooooo    @@@@@@@@@@@@",
"@@@@@@@@@@@@    oooooooooooooooooooooooooooooooo    @@@@@@@@@@@@",
"@@@@@@@@@@@@    oooo%%%%oooooooooooooooo%%%%oooo    @@@@@@@@@@@@",
"@@@@@@@@@@@@    oooo%%%%oooooooooooooooo%%%%oooo    @@@@@@@@@@@@",
"@@@@@@@@@@@@    oooo%%%%oooooooooooooooo%%%%oooo    @@@@@@@@@@@@",
"@@@@@@@@@@@@    oooo%%%%oooooooooooooooo%%%%oooo    @@@@@@@@@@@@",
"@@@@@@@@@@@@    oooo%%%%%%%%%%%%%%%%%%%%%%%%oooo    @@@@@@@@@@@@",
"@@@@@@@@@@@@    oooo%%%%%%%%%%%%%%%%%%%%%%%%oooo    @@@@@@@@@@@@",
"@@@@@@@@@@@@    oooo%%%%%%%%%%%%%%%%%%%%%%%%oooo    @@@@@@@@@@@@",
"@@@@@@@@@@@@    oooo%%%%%%%%%%%%%%%%%%%%%%%%oooo    @@@@@@@@@@@@",
"@@@@@@@@    %%%%ooooXXXXXXXX%%%%%%%%XXXXXXXXoooo%%%%    @@@@@@@@",
"@@@@@@@@    %%%%ooooXXXXXXXX%%%%%%%%XXXXXXXXoooo%%%%    @@@@@@@@",
"@@@@@@@@    %%%%ooooXXXXXXXX%%%%%%%%XXXXXXXXoooo%%%%    @@@@@@@@",
"@@@@@@@@    %%%%ooooXXXXXXXX%%%%%%%%XXXXXXXXoooo%%%%    @@@@@@@@",
"@@@@@@@@    %%%%oooo%%%%    %%%%%%%%    %%%%oooo%%%%    @@@@@@@@",
"@@@@@@@@    %%%%oooo%%%%    %%%%%%%%    %%%%oooo%%%%    @@@@@@@@",
"@@@@@@@@    %%%%oooo%%%%    %%%%%%%%    %%%%oooo%%%%    @@@@@@@@",
"@@@@@@@@    %%%%oooo%%%%    %%%%%%%%    %%%%oooo%%%%    @@@@@@@@",
"@@@@@@@@@@@@    ++++%%%%    ++++++++    %%%%++++    @@@@@@@@@@@@",
"@@@@@@@@@@@@    ++++%%%%    ++++++++    %%%%++++    @@@@@@@@@@@@",
"@@@@@@@@@@@@    ++++%%%%    ++++++++    %%%%++++    @@@@@@@@@@@@",
"@@@@@@@@@@@@    ++++%%%%    ++++++++    %%%%++++    @@@@@@@@@@@@",
"@@@@@@@@@@@@        ++++%%%%%%%%%%%%%%%%++++        @@@@@@@@@@@@",
"@@@@@@@@@@@@        ++++%%%%%%%%%%%%%%%%++++        @@@@@@@@@@@@",
"@@@@@@@@            ++++%%%%%%%%%%%%%%%%++++            @@@@@@@@",
"@@@@@@@@            ++++%%%%%%%%%%%%%%%%++++            @@@@@@@@",
"@@@@@@@@    %%%%&&&&....OOOO++++++++OOOO....&&&&%%%%    @@@@@@@@",
"@@@@@@@@    %%%%&&&&....OOOO++++++++OOOO....&&&&%%%%    @@@@@@@@",
"@@@@    %%%%++++    ....OOOO&&&&&&&&OOOO....    ++++%%%%    @@@@",
"@@@@    %%%%++++    ....OOOO&&&&&&&&OOOO....    ++++%%%%    @@@@",
"@@@@    %%%%++++    ....OOOO&&&&&&&&OOOO....    ++++%%%%    @@@@",
"@@@@    %%%%++++    ....OOOO&&&&&&&&OOOO....    ++++%%%%    @@@@",
"@@@@    %%%%%%%%    OOOOOOOO&&&&&&&&OOOOOOOO    %%%%%%%%    @@@@",
"@@@@    %%%%%%%%    OOOOOOOO&&&&&&&&OOOOOOOO    %%%%%%%%    @@@@",
"@@@@    %%%%%%%%    OOOOOOOO&&&&&&&&OOOOOOOO    %%%%%%%%    @@@@",
"@@@@    %%%%%%%%    OOOOOOOO&&&&&&&&OOOOOOOO    %%%%%%%%    @@@@",
"@@@@@@@@                ####$$$$$$$$####                @@@@@@@@",
"@@@@@@@@                ####$$$$$$$$####                @@@@@@@@",
"@@@@@@@@                ####$$$$$$$$####                @@@@@@@@",
"@@@@@@@@                ####$$$$$$$$####                @@@@@@@@",
"@@@@@@@@@@@@@@@@    ++++++++        ++++++++    @@@@@@@@@@@@@@@@",
"@@@@@@@@@@@@@@@@    ++++++++        ++++++++    @@@@@@@@@@@@@@@@",
"@@@@@@@@@@@@@@@@    ++++++++        ++++++++    @@@@@@@@@@@@@@@@",
"@@@@@@@@@@@@@@@@    ++++++++        ++++++++    @@@@@@@@@@@@@@@@",
"@@@@@@@@@@@@@@@@@@@@        ********        @@@@@@@@@@@@@@@@@@@@",
"@@@@@@@@@@@@@@@@@@@@        ********        @@@@@@@@@@@@@@@@@@@@",
"@@@@@@@@@@@@@@@@@@@@        ********        @@@@@@@@@@@@@@@@@@@@",
"@@@@@@@@@@@@@@@@@@@@        ********        @@@@@@@@@@@@@@@@@@@@"
};
