/* XPM */
static char *result[] = {
/* columns rows colors chars-per-pixel */
"64 64 7 1 ",
"  c #14182E",
". c #AD2F45",
"X c #C8D45D",
"o c #686F99",
"O c #A3A7C2",
"+ c #DFE0E8",
"@ c None",
/* pixels */
"XXXXXXXXXXXXXXXXXXXX                        XXXXXXXXXXXXXXXXXXXX",
"XXXXXXXXXXXXXXXXXXXX                        XXXXXXXXXXXXXXXXXXXX",
"XXXXXXXXXXXXXXXXXXXX                        XXXXXXXXXXXXXXXXXXXX",
"XXXXXXXXXXXXXXXXXXXX                        XXXXXXXXXXXXXXXXXXXX",
"XXXXXXXXXXXXXXXX    OOOO++++++++++++++++OOOO    XXXXXXXXXXXXXXXX",
"XXXXXXXXXXXXXXXX    OOOO++++++++++++++++OOOO    XXXXXXXXXXXXXXXX",
"XXXXXXXXXXXXXXXX    OOOO++++++++++++++++OOOO    XXXXXXXXXXXXXXXX",
"XXXXXXXXXXXXXXXX    OOOO++++++++++++++++OOOO    XXXXXXXXXXXXXXXX",
"XXXXXXXXXXXX    OOOO++++++++++++++++++++++++OOOO    XXXXXXXXXXXX",
"XXXXXXXXXXXX    OOOO++++++++++++++++++++++++OOOO    XXXXXXXXXXXX",
"XXXXXXXXXXXX    OOOO++++++++++++++++++++++++OOOO    XXXXXXXXXXXX",
"XXXXXXXXXXXX    OOOO++++++++++++++++++++++++OOOO    XXXXXXXXXXXX",
"XXXXXXXXXXXX    OOOO++++++++++++++++++++++++OOOO    XXXXXXXXXXXX",
"XXXXXXXXXXXX    OOOO++++++++++++++++++++++++OOOO    XXXXXXXXXXXX",
"XXXXXXXXXXXX    OOOO++++++++++++++++++++++++OOOO    XXXXXXXXXXXX",
"XXXXXXXXXXXX    OOOO++++++++++++++++++++++++OOOO    XXXXXXXXXXXX",
"XXXXXXXXXXXX    ooooOOOO++++++++++++++++OOOOoooo    XXXXXXXXXXXX",
"XXXXXXXXXXXX    ooooOOOO++++++++++++++++OOOOoooo    XXXXXXXXXXXX",
"XXXXXXXXXXXX    ooooOOOO++++++++++++++++OOOOoooo    XXXXXXXXXXXX",
"XXXXXXXXXXXX    ooooOOOO++++++++++++++++OOOOoooo    XXXXXXXXXXXX",
"XXXXXXXXXXXX    OOOO    OOOO++++++++OOOO    OOOO    XXXXXXXXXXXX",
"XXXXXXXXXXXX    OOOO    OOOO++++++++OOOO    OOOO    XXXXXXXXXXXX",
"XXXXXXXXXXXX    OOOO    OOOO++++++++OOOO    OOOO    XXXXXXXXXXXX",
"XXXXXXXXXXXX    OOOO    OOOO++++++++OOOO    OOOO    XXXXXXXXXXXX",
"XXXXXXXXXXXX    OOOO        OOOOOOOO        OOOO    XXXXXXXXXXXX",
"XXXXXXXXXXXX    OOOO        OOOOOOOO        OOOO    XXXXXXXXXXXX",
"XXXXXXXXXXXX    OOOO        OOOOOOOO        OOOO    XXXXXXXXXXXX",
"XXXXXXXXXXXX    OOOO        OOOOOOOO        OOOO    XXXXXXXXXXXX",
"XXXXXXXXXXXX    OOOO    ....++++++++....    OOOO    XXXXXXXXXXXX",
"XXXXXXXXXXXX    OOOO    ....++++++++....    OOOO    XXXXXXXXXXXX",
"XXXXXXXXXXXX    OOOO    ....++++++++....    OOOO    XXXXXXXXXXXX",
"XXXXXXXXXXXX    OOOO    ....++++++++....    OOOO    XXXXXXXXXXXX",
"XXXXXXXXXXXXXXXX    OOOO++++oooooooo++++OOOO    XXXXXXXXXXXXXXXX",
"XXXXXXXXXXXXXXXX    OOOO++++oooooooo++++OOOO    XXXXXXXXXXXXXXXX",
"XXXXXXXXXXXXXXXX    OOOO++++oooooooo++++OOOO    XXXXXXXXXXXXXXXX",
"XXXXXXXXXXXXXXXX    OOOO++++oooooooo++++OOOO    XXXXXXXXXXXXXXXX",
"XXXXXXXXXXXX        ++++    ++++++++    ++++        XXXXXXXXXXXX",
"XXXXXXXXXXXX        ++++    ++++++++    ++++        XXXXXXXXXXXX",
"XXXXXXXXXXXX        ++++    ++++++++    ++++        XXXXXXXXXXXX",
"XXXXXXXXXXXX        ++++    ++++++++    ++++        XXXXXXXXXXXX",
"XXXXXXXX    ++++++++                        ++++++++    XXXXXXXX",
"XXXXXXXX    ++++++++                        ++++++++    XXXXXXXX",
"XXXXXXXX    ++++++++                        ++++++++    XXXXXXXX",
"XXXXXXXX    ++++++++                        ++++++++    XXXXXXXX",
"XXXX    ++++OOOO    ooooOOOO++++++++OOOOoooo    OOOO++++    XXXX",
"XXXX    ++++OOOO    ooooOOOO++++++++OOOOoooo    OOOO++++    XXXX",
"XXXX    ++++OOOO    ooooOOOO++++++++OOOOoooo    OOOO++++    XXXX",
"XXXX    ++++OOOO    ooooOOOO++++++++OOOOoooo    OOOO++++    XXXX",
"XXXX    ++++++++    OOOO++++oooooooo++++OOOO    ++++++++    XXXX",
"XXXX    ++++++++    OOOO++++oooooooo++++OOOO    ++++++++    XXXX",
"XXXX    ++++++++    OOOO++++oooooooo++++OOOO    ++++++++    XXXX",
"XXXX    ++++++++    OOOO++++oooooooo++++OOOO    ++++++++    XXXX",
"XXXXXXXX                ooooOOOOOOOOoooo                XXXXXXXX",
"XXXXXXXX                ooooOOOOOOOOoooo                XXXXXXXX",
"XXXXXXXX                ooooOOOOOOOOoooo                XXXXXXXX",
"XXXXXXXX                ooooOOOOOOOOoooo                XXXXXXXX",
"XXXXXXXXXXXXXXXX    OOOOOOOO        OOOOOOOO    XXXXXXXXXXXXXXXX",
"XXXXXXXXXXXXXXXX    OOOOOOOO        OOOOOOOO    XXXXXXXXXXXXXXXX",
"XXXXXXXXXXXXXXXX    OOOOOOOO        OOOOOOOO    XXXXXXXXXXXXXXXX",
"XXXXXXXXXXXXXXXX    OOOOOOOO        OOOOOOOO    XXXXXXXXXXXXXXXX",
"XXXXXXXXXXXXXXXXXXXX        @@@@@@@@        XXXXXXXXXXXXXXXXXXXX",
"XXXXXXXXXXXXXXXXXXXX        @@@@@@@@        XXXXXXXXXXXXXXXXXXXX",
"XXXXXXXXXXXXXXXXXXXX        @@@@@@@@        XXXXXXXXXXXXXXXXXXXX",
"XXXXXXXXXXXXXXXXXXXX        @@@@@@@@        XXXXXXXXXXXXXXXXXXXX"
};
