/* XPM */
static char *result[] = {
/* columns rows colors chars-per-pixel */
"64 64 6 1 ",
"  c #14182E",
". c #C8D45D",
"X c #686F99",
"o c #A3A7C2",
"O c #DFE0E8",
"+ c None",
/* pixels */
"................................................................",
"................................................................",
"....................                        ....................",
"....................                        ....................",
"....................                        ....................",
"....................                        ....................",
"................    ooooOOOOOOOOOOOOOOOOoooo    ................",
"................    ooooOOOOOOOOOOOOOOOOoooo    ................",
"................    ooooOOOOOOOOOOOOOOOOoooo    ................",
"................    ooooOOOOOOOOOOOOOOOOoooo    ................",
"............    ooooOOOOOOOOOOOOOOOOOOOOOOOOoooo    ............",
"............    ooooOOOOOOOOOOOOOOOOOOOOOOOOoooo    ............",
"............    ooooOOOOOOOOOOOOOOOOOOOOOOOOoooo    ............",
"............    ooooOOOOOOOOOOOOOOOOOOOOOOOOoooo    ............",
"............    ooooOOOOOOOOOOOOOOOOOOOOOOOOoooo    ............",
"............    ooooOOOOOOOOOOOOOOOOOOOOOOOOoooo    ............",
"............    ooooOOOOOOOOOOOOOOOOOOOOOOOOoooo    ............",
"............    ooooOOOOOOOOOOOOOOOOOOOOOOOOoooo    ............",
"............    ooooXXXXOOOOOOOOOOOOOOOOXXXXoooo    ............",
"............    ooooXXXXOOOOOOOOOOOOOOOOXXXXoooo    ............",
"............    ooooXXXXOOOOOOOOOOOOOOOOXXXXoooo    ............",
"............    ooooXXXXOOOOOOOOOOOOOOOOXXXXoooo    ............",
"............    XXXXooooooooooooooooooooooooXXXX    ............",
"............    XXXXooooooooooooooooooooooooXXXX    ............",
"............    XXXXooooooooooooooooooooooooXXXX    ............",
"............    XXXXooooooooooooooooooooooooXXXX    ............",
"............    XXXXooooooooOOOOOOOOooooooooXXXX    ............",
"............    XXXXooooooooOOOOOOOOooooooooXXXX    ............",
"............    XXXXooooooooOOOOOOOOooooooooXXXX    ............",
"............    XXXXooooooooOOOOOOOOooooooooXXXX    ............",
"............    XXXXooooooooooooooooooooooooXXXX    ............",
"............    XXXXooooooooooooooooooooooooXXXX    ............",
"............    XXXXooooooooooooooooooooooooXXXX    ............",
"............    XXXXooooooooooooooooooooooooXXXX    ............",
"................    XXXXooooooooooooooooXXXX    ................",
"................    XXXXooooooooooooooooXXXX    ................",
"................    XXXXooooooooooooooooXXXX    ................",
"............        XXXXooooooooooooooooXXXX        ............",
"............                XXXXXXXX                ............",
"............                XXXXXXXX                ............",
"............                XXXXXXXX                ............",
"........    OOOOOOOOXXXXXXXXOOOOOOOOXXXXXXXXOOOOOOOO    ........",
"........    OOOOOOOOXXXXXXXXOOOOOOOOXXXXXXXXOOOOOOOO    ........",
"........    OOOOOOOOXXXXXXXXOOOOOOOOXXXXXXXXOOOOOOOO    ........",
"........    OOOOOOOOXXXXXXXXOOOOOOOOXXXXXXXXOOOOOOOO    ........",
"....    OOOOoooo    ooooooooOOOOOOOOoooooooo    ooooOOOO    ....",
"....    OOOOoooo    ooooooooOOOOOOOOoooooooo    ooooOOOO    ....",
"....    OOOOoooo    ooooooooOOOOOOOOoooooooo    ooooOOOO    ....",
"....    OOOOoooo    ooooooooOOOOOOOOoooooooo    ooooOOOO    ....",
"....    OOOOOOOO    XXXXXXXXOOOOOOOOXXXXXXXX    OOOOOOOO    ....",
"....    OOOOOOOO    XXXXXXXXOOOOOOOOXXXXXXXX    OOOOOOOO    ....",
"....    OOOOOOOO    XXXXXXXXOOOOOOOOXXXXXXXX    OOOOOOOO    ....",
"....    OOOOOOOO    XXXXXXXXOOOOOOOOXXXXXXXX    OOOOOOOO    ....",
"........                oooooooooooooooo                ........",
"........                oooooooooooooooo                ........",
"........                oooooooooooooooo                ........",
"........                oooooooooooooooo                ........",
"................    XXXXXXXX        XXXXXXXX    ................",
"................    XXXXXXXX        XXXXXXXX    ................",
"................    XXXXXXXX        XXXXXXXX    ................",
"....................        ++++++++        ....................",
"....................        ++++++++        ....................",
"....................        ++++++++        ....................",
"....................        ++++++++        ...................."
};
