/* XPM */
static char *_0365c8af7164d36df313f03dc053ac37LYCLOtQpkMPzSYN[] = {
/* columns rows colors chars-per-pixel */
"64 64 7 1 ",
"  c #181425",
". c #252D52",
"X c #404973",
"o c #C8D45D",
"O c #686F99",
"+ c #8085A5",
"@ c #A3A7C2",
/* pixels */
"oooooooooooooooooooooooooooooooooooooooooooooooooooooooooooooooo",
"oooooooooooooooooooooooooooooooooooooooooooooooooooooooooooooooo",
"oooooooooooooooooooooooooooooooooooooooooooooooooooooooooooooooo",
"oooooooooooooooooooooooooooooooooooooooooooooooooooooooooooooooo",
"oooooooooooooooooooooooooooooooooooooooooooooooooooooooooooooooo",
"oooooooooooooooooooooooooooooooooooooooooooooooooooooooooooooooo",
"oooooooooooooooooooooooooooooooooooooooooooooooooooooooooooooooo",
"oooooooooooooooooooooooooooooooooooooooooooooooooooooooooooooooo",
"oooooooooooooooooooooooooooooooooooooooooooooooooooooooooooooooo",
"oooooooooooooooooooooooooooooooooooooooooooooooooooooooooooooooo",
"oooooooooooooooooooooooooooooooooooooooooooooooooooooooooooooooo",
"oooooooooooooooooooooooooooooooooooooooooooooooooooooooooooooooo",
"oooooooooooooooo                                oooooooooooooooo",
"oooooooooooooooo                                oooooooooooooooo",
"oooooooooooooooo                                oooooooooooooooo",
"oooooooooooooooo                                oooooooooooooooo",
"oooooooo        @@@@@@@@++++++++++++++++@@@@@@@@        oooooooo",
"oooooooo        @@@@@@@@++++++++++++++++@@@@@@@@        oooooooo",
"oooooooo        @@@@@@@@++++++++++++++++@@@@@@@@        oooooooo",
"oooooooo        @@@@@@@@++++++++++++++++@@@@@@@@        oooooooo",
"oooo    @@@@@@@@++++OOOOOOOOOOOOOOOOOOOOOOOO++++@@@@@@@@    oooo",
"oooo    @@@@@@@@++++OOOOOOOOOOOOOOOOOOOOOOOO++++@@@@@@@@    oooo",
"oooo    @@@@@@@@++++OOOOOOOOOOOOOOOOOOOOOOOO++++@@@@@@@@    oooo",
"oooo    @@@@@@@@++++OOOOOOOOOOOOOOOOOOOOOOOO++++@@@@@@@@    oooo",
"oooo    @@@@++++OOOOOOOOXXXXXXXXXXXXXXXXOOOOOOOO++++@@@@    oooo",
"oooo    @@@@++++OOOOOOOOXXXXXXXXXXXXXXXXOOOOOOOO++++@@@@    oooo",
"oooo    @@@@++++OOOOOOOOXXXXXXXXXXXXXXXXOOOOOOOO++++@@@@    oooo",
"oooo    @@@@++++OOOOOOOOXXXXXXXXXXXXXXXXOOOOOOOO++++@@@@    oooo",
"oooo    ++++OOOOOOOOXXXX................XXXXOOOOOOOO++++    oooo",
"oooo    ++++OOOOOOOOXXXX................XXXXOOOOOOOO++++    oooo",
"oooo    ++++OOOOOOOOXXXX................XXXXOOOOOOOO++++    oooo",
"oooo    ++++OOOOOOOOXXXX................XXXXOOOOOOOO++++    oooo",
"oooo    ++++OOOOOOOOXXXX................XXXXOOOOOOOO++++    oooo",
"oooo    ++++OOOOOOOOXXXX................XXXXOOOOOOOO++++    oooo",
"oooo    ++++OOOOOOOOXXXX................XXXXOOOOOOOO++++    oooo",
"oooo    ++++OOOOOOOOXXXX................XXXXOOOOOOOO++++    oooo",
"oooo    @@@@++++OOOOOOOOXXXXXXXXXXXXXXXXOOOOOOOO++++@@@@    oooo",
"oooo    @@@@++++OOOOOOOOXXXXXXXXXXXXXXXXOOOOOOOO++++@@@@    oooo",
"oooo    @@@@++++OOOOOOOOXXXXXXXXXXXXXXXXOOOOOOOO++++@@@@    oooo",
"oooo    @@@@++++OOOOOOOOXXXXXXXXXXXXXXXXOOOOOOOO++++@@@@    oooo",
"oooo    @@@@@@@@++++OOOOOOOOOOOOOOOOOOOOOOOO++++@@@@@@@@    oooo",
"oooo    @@@@@@@@++++OOOOOOOOOOOOOOOOOOOOOOOO++++@@@@@@@@    oooo",
"oooo    @@@@@@@@++++OOOOOOOOOOOOOOOOOOOOOOOO++++@@@@@@@@    oooo",
"oooo    @@@@@@@@++++OOOOOOOOOOOOOOOOOOOOOOOO++++@@@@@@@@    oooo",
"oooooooo        @@@@@@@@++++++++++++++++@@@@@@@@        oooooooo",
"oooooooo        @@@@@@@@++++++++++++++++@@@@@@@@        oooooooo",
"oooooooo        @@@@@@@@++++++++++++++++@@@@@@@@        oooooooo",
"oooooooo        @@@@@@@@++++++++++++++++@@@@@@@@        oooooooo",
"oooooooooooooooo                                oooooooooooooooo",
"oooooooooooooooo                                oooooooooooooooo",
"oooooooooooooooo                                oooooooooooooooo",
"oooooooooooooooo                                oooooooooooooooo",
"oooooooooooooooooooooooooooooooooooooooooooooooooooooooooooooooo",
"oooooooooooooooooooooooooooooooooooooooooooooooooooooooooooooooo",
"oooooooooooooooooooooooooooooooooooooooooooooooooooooooooooooooo",
"oooooooooooooooooooooooooooooooooooooooooooooooooooooooooooooooo",
"oooooooooooooooooooooooooooooooooooooooooooooooooooooooooooooooo",
"oooooooooooooooooooooooooooooooooooooooooooooooooooooooooooooooo",
"oooooooooooooooooooooooooooooooooooooooooooooooooooooooooooooooo",
"oooooooooooooooooooooooooooooooooooooooooooooooooooooooooooooooo",
"oooooooooooooooooooooooooooooooooooooooooooooooooooooooooooooooo",
"oooooooooooooooooooooooooooooooooooooooooooooooooooooooooooooooo",
"oooooooooooooooooooooooooooooooooooooooooooooooooooooooooooooooo",
"oooooooooooooooooooooooooooooooooooooooooooooooooooooooooooooooo"
};
