/* XPM */
static char *_90b7c8ed6de47b0f685012cafe90780b3LNSOd2kqPF452o[] = {
/* columns rows colors chars-per-pixel */
"64 64 5 1 ",
"  c #181425",
". c #404973",
"X c #C8D45D",
"o c #686F99",
"O c #A3A7C2",
/* pixels */
"XXXXXXXXXXXXXXXXXXXXXXXXXXXXXXXXXXXXXXXXXXXXXXXXXXXXXXXXXXXXXXXX",
"XXXXXXXXXXXXXXXXXXXXXXXXXXXXXXXXXXXXXXXXXXXXXXXXXXXXXXXXXXXXXXXX",
"XXXXXXXXXXXXXXXXXXXXXXXXXXXXXXXXXXXXXXXXXXXXXXXXXXXXXXXXXXXXXXXX",
"XXXXXXXXXXXXXXXXXXXXXXXXXXXXXXXXXXXXXXXXXXXXXXXXXXXXXXXXXXXXXXXX",
"XXXXXXXXXXXXXXXXXXXX                        XXXXXXXXXXXXXXXXXXXX",
"XXXXXXXXXXXXXXXXXXXX                        XXXXXXXXXXXXXXXXXXXX",
"XXXXXXXXXXXXXXXXXXXX                        XXXXXXXXXXXXXXXXXXXX",
"XXXXXXXXXXXXXXXXXXXX                        XXXXXXXXXXXXXXXXXXXX",
"XXXXXXXXXXXXXXXX    ooooOOOOOOOOOOOOOOOOoooo    XXXXXXXXXXXXXXXX",
"XXXXXXXXXXXXXXXX    ooooOOOOOOOOOOOOOOOOoooo    XXXXXXXXXXXXXXXX",
"XXXXXXXXXXXXXXXX    ooooOOOOOOOOOOOOOOOOoooo    XXXXXXXXXXXXXXXX",
"XXXXXXXXXXXXXXXX    ooooOOOOOOOOOOOOOOOOoooo    XXXXXXXXXXXXXXXX",
"XXXXXXXXXXXX    ooooOOOOOOOOOOOOOOOOOOOOOOOOoooo    XXXXXXXXXXXX",
"XXXXXXXXXXXX    ooooOOOOOOOOOOOOOOOOOOOOOOOOoooo    XXXXXXXXXXXX",
"XXXXXXXXXXXX    ooooOOOOOOOOOOOOOOOOOOOOOOOOoooo    XXXXXXXXXXXX",
"XXXXXXXXXXXX    ooooOOOOOOOOOOOOOOOOOOOOOOOOoooo    XXXXXXXXXXXX",
"XXXXXXXX    ooooOOOOOOOOOOOOOOOOOOOOOOOOOOOOOOOOoooo    XXXXXXXX",
"XXXXXXXX    ooooOOOOOOOOOOOOOOOOOOOOOOOOOOOOOOOOoooo    XXXXXXXX",
"XXXXXXXX    ooooOOOOOOOOOOOOOOOOOOOOOOOOOOOOOOOOoooo    XXXXXXXX",
"XXXXXXXX    ooooOOOOOOOOOOOOOOOOOOOOOOOOOOOOOOOOoooo    XXXXXXXX",
"XXXX    ooooOOOOOOOOOOOOOOOOOOOOOOOOOOOOOOOOOOOOOOOOoooo    XXXX",
"XXXX    ooooOOOOOOOOOOOOOOOOOOOOOOOOOOOOOOOOOOOOOOOOoooo    XXXX",
"XXXX    ooooOOOOOOOOOOOOOOOOOOOOOOOOOOOOOOOOOOOOOOOOoooo    XXXX",
"XXXX    ooooOOOOOOOOOOOOOOOOOOOOOOOOOOOOOOOOOOOOOOOOoooo    XXXX",
"XXXX    ooooOOOOOOOOOOOOOOOOOOOOOOOOOOOOOOOOOOOOOOOOoooo    XXXX",
"XXXX    ooooOOOOOOOOOOOOOOOOOOOOOOOOOOOOOOOOOOOOOOOOoooo    XXXX",
"XXXX    ooooOOOOOOOOOOOOOOOOOOOOOOOOOOOOOOOOOOOOOOOOoooo    XXXX",
"XXXX    ooooOOOOOOOOOOOOOOOOOOOOOOOOOOOOOOOOOOOOOOOOoooo    XXXX",
"XXXX    ....ooooOOOOOOOOOOOOOOOOOOOOOOOOOOOOOOOOoooo....    XXXX",
"XXXX    ....ooooOOOOOOOOOOOOOOOOOOOOOOOOOOOOOOOOoooo....    XXXX",
"XXXX    ....ooooOOOOOOOOOOOOOOOOOOOOOOOOOOOOOOOOoooo....    XXXX",
"XXXX    ....ooooOOOOOOOOOOOOOOOOOOOOOOOOOOOOOOOOoooo....    XXXX",
"XXXX    ........ooooOOOOOOOOOOOOOOOOOOOOOOOOoooo........    XXXX",
"XXXX    ........ooooOOOOOOOOOOOOOOOOOOOOOOOOoooo........    XXXX",
"XXXX    ........ooooOOOOOOOOOOOOOOOOOOOOOOOOoooo........    XXXX",
"XXXX    ........ooooOOOOOOOOOOOOOOOOOOOOOOOOoooo........    XXXX",
"XXXX    ............ooooOOOOOOOOOOOOOOOOoooo............    XXXX",
"XXXX    ............ooooOOOOOOOOOOOOOOOOoooo............    XXXX",
"XXXX    ............ooooOOOOOOOOOOOOOOOOoooo............    XXXX",
"XXXX    ............ooooOOOOOOOOOOOOOOOOoooo............    XXXX",
"XXXX    ................oooooooooooooooo................    XXXX",
"XXXX    ................oooooooooooooooo................    XXXX",
"XXXX    ................oooooooooooooooo................    XXXX",
"XXXX    ................oooooooooooooooo................    XXXX",
"XXXXXXXX    ............oooooooooooooooo............    XXXXXXXX",
"XXXXXXXX    ............oooooooooooooooo............    XXXXXXXX",
"XXXXXXXX    ............oooooooooooooooo............    XXXXXXXX",
"XXXXXXXX    ............oooooooooooooooo............    XXXXXXXX",
"XXXXXXXXXXXX    ........oooooooooooooooo........    XXXXXXXXXXXX",
"XXXXXXXXXXXX    ........oooooooooooooooo........    XXXXXXXXXXXX",
"XXXXXXXXXXXX    ........oooooooooooooooo........    XXXXXXXXXXXX",
"XXXXXXXXXXXX    ........oooooooooooooooo........    XXXXXXXXXXXX",
"XXXXXXXXXXXXXXXX    ....oooooooooooooooo....    XXXXXXXXXXXXXXXX",
"XXXXXXXXXXXXXXXX    ....oooooooooooooooo....    XXXXXXXXXXXXXXXX",
"XXXXXXXXXXXXXXXX    ....oooooooooooooooo....    XXXXXXXXXXXXXXXX",
"XXXXXXXXXXXXXXXX    ....oooooooooooooooo....    XXXXXXXXXXXXXXXX",
"XXXXXXXXXXXXXXXXXXXX                        XXXXXXXXXXXXXXXXXXXX",
"XXXXXXXXXXXXXXXXXXXX                        XXXXXXXXXXXXXXXXXXXX",
"XXXXXXXXXXXXXXXXXXXX                        XXXXXXXXXXXXXXXXXXXX",
"XXXXXXXXXXXXXXXXXXXX                        XXXXXXXXXXXXXXXXXXXX",
"XXXXXXXXXXXXXXXXXXXXXXXXXXXXXXXXXXXXXXXXXXXXXXXXXXXXXXXXXXXXXXXX",
"XXXXXXXXXXXXXXXXXXXXXXXXXXXXXXXXXXXXXXXXXXXXXXXXXXXXXXXXXXXXXXXX",
"XXXXXXXXXXXXXXXXXXXXXXXXXXXXXXXXXXXXXXXXXXXXXXXXXXXXXXXXXXXXXXXX",
"XXXXXXXXXXXXXXXXXXXXXXXXXXXXXXXXXXXXXXXXXXXXXXXXXXXXXXXXXXXXXXXX"
};
