/* XPM */
static char *result[] = {
/* columns rows colors chars-per-pixel */
"64 64 10 1 ",
"  c #14182E",
". c #52333F",
"X c #3A3F5E",
"o c #8F4D57",
"O c #BD6A62",
"+ c #C8D45D",
"@ c #4FA4B8",
"# c #FFC2A1",
"$ c #DFE0E8",
"% c None",
/* pixels */
"++++++++++++++++++++                        ++++++++++++++++++++",
"++++++++++++++++++++                        ++++++++++++++++++++",
"++++++++++++++++++++                        ++++++++++++++++++++",
"++++++++++++++++++++                        ++++++++++++++++++++",
"++++++++++++++++    XXXXXXXXXXXXXXXXXXXXXXXX    ++++++++++++++++",
"++++++++++++++++    XXXXXXXXXXXXXXXXXXXXXXXX    ++++++++++++++++",
"++++++++++++++++    XXXXXXXXXXXXXXXXXXXXXXXX    ++++++++++++++++",
"++++++++++++++++    XXXXXXXXXXXXXXXXXXXXXXXX    ++++++++++++++++",
"++++++++++++    XXXXXXXXXXXXXXXXXXXXXXXXXXXXXXXX    ++++++++++++",
"++++++++++++    XXXXXXXXXXXXXXXXXXXXXXXXXXXXXXXX    ++++++++++++",
"++++++++++++    XXXXXXXXXXXXXXXXXXXXXXXXXXXXXXXX    ++++++++++++",
"++++++++++++    XXXXXXXXXXXXXXXXXXXXXXXXXXXXXXXX    ++++++++++++",
"++++++++++++    XXXXXXXXXXXXXXXXXXXXXXXXXXXXXXXX    ++++++++++++",
"++++++++++++    XXXXXXXXXXXXXXXXXXXXXXXXXXXXXXXX    ++++++++++++",
"++++++++++++    XXXXXXXXXXXXXXXXXXXXXXXXXXXXXXXX    ++++++++++++",
"++++++++++++    XXXXXXXXXXXXXXXXXXXXXXXXXXXXXXXX    ++++++++++++",
"++++++++++++    XXXXXXXXXXXXXXXXXXXXXXXXXXXXXXXX    ++++++++++++",
"++++++++++++    XXXXXXXXXXXXXXXXXXXXXXXXXXXXXXXX    ++++++++++++",
"++++++++++++    XXXXXXXXXXXXXXXXXXXXXXXXXXXXXXXX    ++++++++++++",
"++++++++++++    XXXXXXXXXXXXXXXXXXXXXXXXXXXXXXXX    ++++++++++++",
"++++++++++++    XXXXXXXXXXXXXXXXXXXXXXXXXXXXXXXX    ++++++++++++",
"++++++++++++    XXXXXXXXXXXXXXXXXXXXXXXXXXXXXXXX    ++++++++++++",
"++++++++++++    XXXXXXXXXXXXXXXXXXXXXXXXXXXXXXXX    ++++++++++++",
"++++++++++++    XXXXXXXXXXXXXXXXXXXXXXXXXXXXXXXX    ++++++++++++",
"++++++++    ####XXXXXXXXXXXXXXXXXXXXXXXXXXXXXXXX####    ++++++++",
"++++++++    ####XXXXXXXXXXXXXXXXXXXXXXXXXXXXXXXX####    ++++++++",
"++++++++    ####XXXXXXXXXXXXXXXXXXXXXXXXXXXXXXXX####    ++++++++",
"++++++++    ####XXXXXXXXXXXXXXXXXXXXXXXXXXXXXXXX####    ++++++++",
"++++++++    ####XXXXXXXXXXXXXXXXXXXXXXXXXXXXXXXX####    ++++++++",
"++++++++    ####XXXXXXXXXXXXXXXXXXXXXXXXXXXXXXXX####    ++++++++",
"++++++++    ####XXXXXXXXXXXXXXXXXXXXXXXXXXXXXXXX####    ++++++++",
"++++++++    ####XXXXXXXXXXXXXXXXXXXXXXXXXXXXXXXX####    ++++++++",
"++++++++++++    OOOOXXXXXXXXXXXXXXXXXXXXXXXXOOOO    ++++++++++++",
"++++++++++++    OOOOXXXXXXXXXXXXXXXXXXXXXXXXOOOO    ++++++++++++",
"++++++++++++    OOOOXXXXXXXXXXXXXXXXXXXXXXXXOOOO    ++++++++++++",
"++++++++++++    OOOOXXXXXXXXXXXXXXXXXXXXXXXXOOOO    ++++++++++++",
"++++++++++++        OOOOOOOOXXXXXXXXOOOOOOOO        ++++++++++++",
"++++++++++++        OOOOOOOOXXXXXXXXOOOOOOOO        ++++++++++++",
"++++++++++++        OOOOOOOOXXXXXXXXOOOOOOOO        ++++++++++++",
"++++++++++++        OOOOOOOOXXXXXXXXOOOOOOOO        ++++++++++++",
"++++++++    ####$$$$....                ....$$$$####    ++++++++",
"++++++++    ####$$$$....                ....$$$$####    ++++++++",
"++++++++    ####$$$$....                ....$$$$####    ++++++++",
"++++++++    ####$$$$....                ....$$$$####    ++++++++",
"++++    ####OOOO    ....oooo........oooo....    OOOO####    ++++",
"++++    ####OOOO    ....oooo........oooo....    OOOO####    ++++",
"++++    ####OOOO    ....oooo........oooo....    OOOO####    ++++",
"++++    ####OOOO    ....oooo........oooo....    OOOO####    ++++",
"++++    ########    ........oooooooo........    ########    ++++",
"++++    ########    ........oooooooo........    ########    ++++",
"++++    ########    ........oooooooo........    ########    ++++",
"++++    ########    ........oooooooo........    ########    ++++",
"++++++++                @@@@@@@@@@@@@@@@                ++++++++",
"++++++++                @@@@@@@@@@@@@@@@                ++++++++",
"++++++++                @@@@@@@@@@@@@@@@                ++++++++",
"++++++++                @@@@@@@@@@@@@@@@                ++++++++",
"++++++++++++++++    OOOOOOOO        OOOOOOOO    ++++++++++++++++",
"++++++++++++++++    OOOOOOOO        OOOOOOOO    ++++++++++++++++",
"++++++++++++++++    OOOOOOOO        OOOOOOOO    ++++++++++++++++",
"++++++++++++++++    OOOOOOOO        OOOOOOOO    ++++++++++++++++",
"++++++++++++++++++++        %%%%%%%%        ++++++++++++++++++++",
"++++++++++++++++++++        %%%%%%%%        ++++++++++++++++++++",
"++++++++++++++++++++        %%%%%%%%        ++++++++++++++++++++",
"++++++++++++++++++++        %%%%%%%%        ++++++++++++++++++++"
};
