/* XPM */
static char *result[] = {
/* columns rows colors chars-per-pixel */
"64 64 6 1 ",
"  c #14182E",
". c #AD2F45",
"X c #C8D45D",
"o c #686F99",
"O c #A3A7C2",
"+ c #DFE0E8",
/* pixels */
"XXXXXXXXXXXXXXXXXXXX                        XXXXXXXXXXXXXXXXXXXX",
"XXXXXXXXXXXXXXXXXXXX                        XXXXXXXXXXXXXXXXXXXX",
"XXXXXXXXXXXXXXXXXXXX                        XXXXXXXXXXXXXXXXXXXX",
"XXXXXXXXXXXXXXXXXXXX                        XXXXXXXXXXXXXXXXXXXX",
"XXXXXXXXXXXXXXXX    OOOOOOOO++++++++++++++++    XXXXXXXXXXXXXXXX",
"XXXXXXXXXXXXXXXX    OOOOOOOO++++++++++++++++    XXXXXXXXXXXXXXXX",
"XXXXXXXXXXXXXXXX    OOOOOOOO++++++++++++++++    XXXXXXXXXXXXXXXX",
"XXXXXXXXXXXXXXXX    OOOOOOOO++++++++++++++++    XXXXXXXXXXXXXXXX",
"XXXXXXXXXXXX    OOOOOOOO++++++++++++++++++++++++    XXXXXXXXXXXX",
"XXXXXXXXXXXX    OOOOOOOO++++++++++++++++++++++++    XXXXXXXXXXXX",
"XXXXXXXXXXXX    OOOOOOOO++++++++++++++++++++++++    XXXXXXXXXXXX",
"XXXXXXXXXXXX    OOOOOOOO++++++++++++++++++++++++    XXXXXXXXXXXX",
"XXXXXXXXXXXX    OOOOOOOOOOOOOOOO++++++++++++++++    XXXXXXXXXXXX",
"XXXXXXXXXXXX    OOOOOOOOOOOOOOOO++++++++++++++++    XXXXXXXXXXXX",
"XXXXXXXXXXXX    OOOOOOOOOOOOOOOO++++++++++++++++    XXXXXXXXXXXX",
"XXXXXXXXXXXX    OOOOOOOOOOOOOOOO++++++++++++++++    XXXXXXXXXXXX",
"XXXXXXXXXXXX    OOOOOOOOOOOOOOOOOOOOOOOO++++++++    XXXXXXXXXXXX",
"XXXXXXXXXXXX    OOOOOOOOOOOOOOOOOOOOOOOO++++++++    XXXXXXXXXXXX",
"XXXXXXXXXXXX    OOOOOOOOOOOOOOOOOOOOOOOO++++++++    XXXXXXXXXXXX",
"XXXXXXXXXXXX    OOOOOOOOOOOOOOOOOOOOOOOO++++++++    XXXXXXXXXXXX",
"XXXXXXXXXXXX    OOOOooooooooOOOO++++    OOOO++++    XXXXXXXXXXXX",
"XXXXXXXXXXXX    OOOOooooooooOOOO++++    OOOO++++    XXXXXXXXXXXX",
"XXXXXXXXXXXX    OOOOooooooooOOOO++++    OOOO++++    XXXXXXXXXXXX",
"XXXXXXXXXXXX    OOOOooooooooOOOO++++    OOOO++++    XXXXXXXXXXXX",
"XXXXXXXXXXXX    ooooOOOOOOOOoooo++++        OOOO    XXXXXXXXXXXX",
"XXXXXXXXXXXX    ooooOOOOOOOOoooo++++        OOOO    XXXXXXXXXXXX",
"XXXXXXXXXXXX    ooooOOOOOOOOoooo++++        OOOO    XXXXXXXXXXXX",
"XXXXXXXXXXXX    ooooOOOOOOOOoooo++++        OOOO    XXXXXXXXXXXX",
"XXXXXXXXXXXX    ooooOOOOOOOOOOOOOOOO    ....++++    XXXXXXXXXXXX",
"XXXXXXXXXXXX    ooooOOOOOOOOOOOOOOOO    ....++++    XXXXXXXXXXXX",
"XXXXXXXXXXXX    ooooOOOOOOOOOOOOOOOO    ....++++    XXXXXXXXXXXX",
"XXXXXXXXXXXX    ooooOOOOOOOOOOOOOOOO    ....++++    XXXXXXXXXXXX",
"XXXXXXXXXXXXXXXX    ooooooooOOOOOOOOOOOO++++oooo    XXXXXXXXXXXX",
"XXXXXXXXXXXXXXXX    ooooooooOOOOOOOOOOOO++++oooo    XXXXXXXXXXXX",
"XXXXXXXXXXXXXXXX    ooooooooOOOOOOOOOOOO++++oooo    XXXXXXXXXXXX",
"XXXXXXXXXXXXXXXX    ooooooooOOOOOOOOOOOO++++oooo    XXXXXXXXXXXX",
"XXXXXXXXXXXXXXXXXXXX    oooo    ++++++++    ++++    XXXXXXXXXXXX",
"XXXXXXXXXXXXXXXXXXXX    oooo    ++++++++    ++++    XXXXXXXXXXXX",
"XXXXXXXXXXXXXXXXXXXX    oooo    ++++++++    ++++    XXXXXXXXXXXX",
"XXXXXXXXXXXXXXXXXXXX    oooo    ++++++++    ++++    XXXXXXXXXXXX",
"XXXXXXXXXXXXXXXXXXXX    OOOOoooo                XXXXXXXXXXXXXXXX",
"XXXXXXXXXXXXXXXXXXXX    OOOOoooo                XXXXXXXXXXXXXXXX",
"XXXXXXXXXXXXXXXXXXXX    OOOOoooo                XXXXXXXXXXXXXXXX",
"XXXXXXXXXXXXXXXXXXXX    OOOOoooo                XXXXXXXXXXXXXXXX",
"XXXXXXXXXXXXXXXXXXXX    ++++    OOOO++++    XXXXXXXXXXXXXXXXXXXX",
"XXXXXXXXXXXXXXXXXXXX    ++++    OOOO++++    XXXXXXXXXXXXXXXXXXXX",
"XXXXXXXXXXXXXXXXXXXX    ++++    OOOO++++    XXXXXXXXXXXXXXXXXXXX",
"XXXXXXXXXXXXXXXXXXXX    ++++    OOOO++++    XXXXXXXXXXXXXXXXXXXX",
"XXXXXXXXXXXXXXXXXXXX    ++++OOOO    OOOO    XXXXXXXXXXXXXXXXXXXX",
"XXXXXXXXXXXXXXXXXXXX    ++++OOOO    OOOO    XXXXXXXXXXXXXXXXXXXX",
"XXXXXXXXXXXXXXXXXXXX    ++++OOOO    OOOO    XXXXXXXXXXXXXXXXXXXX",
"XXXXXXXXXXXXXXXXXXXX    ++++OOOO    OOOO    XXXXXXXXXXXXXXXXXXXX",
"XXXXXXXXXXXXXXXXXXXX    ++++++++    ++++    XXXXXXXXXXXXXXXXXXXX",
"XXXXXXXXXXXXXXXXXXXX    ++++++++    ++++    XXXXXXXXXXXXXXXXXXXX",
"XXXXXXXXXXXXXXXXXXXX    ++++++++    ++++    XXXXXXXXXXXXXXXXXXXX",
"XXXXXXXXXXXXXXXXXXXX    ++++++++    ++++    XXXXXXXXXXXXXXXXXXXX",
"XXXXXXXXXXXXXXXXXXXXXXXX        oooooooo    XXXXXXXXXXXXXXXXXXXX",
"XXXXXXXXXXXXXXXXXXXXXXXX        oooooooo    XXXXXXXXXXXXXXXXXXXX",
"XXXXXXXXXXXXXXXXXXXXXXXX        oooooooo    XXXXXXXXXXXXXXXXXXXX",
"XXXXXXXXXXXXXXXXXXXXXXXX        oooooooo    XXXXXXXXXXXXXXXXXXXX",
"XXXXXXXXXXXXXXXXXXXXXXXXXXXXXXXX        XXXXXXXXXXXXXXXXXXXXXXXX",
"XXXXXXXXXXXXXXXXXXXXXXXXXXXXXXXX        XXXXXXXXXXXXXXXXXXXXXXXX",
"XXXXXXXXXXXXXXXXXXXXXXXXXXXXXXXX        XXXXXXXXXXXXXXXXXXXXXXXX",
"XXXXXXXXXXXXXXXXXXXXXXXXXXXXXXXX        XXXXXXXXXXXXXXXXXXXXXXXX"
};
